<svg height="512" width="512" fill="#fff" xmlns="http://www.w3.org/2000/svg"><path d="M190 267v73c0 4.688-1.476 9.021-4.479 12.615-1.258 1.625-31.095 41.099-31.54 114.29C153.83 491.771 133.416 512 108.474 512H81.526c-24.941 0-45.356-20.229-45.507-45.095-.445-73.191-30.282-112.665-31.54-114.29C1.476 349.021 0 344.688 0 340v-84.356C0 206.766 39.766 167 88.644 167H260c11.046 0 20 8.954 20 20s-8.954 20-20 20H88.644C61.822 207 40 228.822 40 255.644v77.954c10.526 15.79 35.579 60.9 36.018 133.064.018 2.844 2.591 5.338 5.508 5.338h26.948c2.917 0 5.491-2.495 5.508-5.339.438-72.163 25.492-117.273 36.018-133.063V267c0-11.046 8.954-20 20-20s20 8.954 20 20zM26 68C26 30.505 56.505 0 94 0s68 30.505 68 68-30.505 68-68 68-68-30.505-68-68zm40 0c0 15.439 12.561 28 28 28s28-12.561 28-28-12.561-28-28-28-28 12.561-28 28zM392 0h-32c-29.96 0-58.649 11.103-80.784 31.264-21.98 20.02-35.697 47.281-38.625 76.76-1.091 10.992 6.935 20.787 17.926 21.878 10.993 1.088 20.787-6.935 21.878-17.926C284.47 70.943 318.692 40 360 40h32c44.112 0 80 35.888 80 80v162c0 44.112-35.888 80-80 80h-32c-44.112 0-80-35.888-80-80v-15c0-11.046-8.954-20-20-20s-20 8.954-20 20v15c0 66.168 53.832 120 120 120h32c66.168 0 120-53.832 120-120V120C512 53.832 458.168 0 392 0zm74 472h-71v-20c0-11.046-8.954-20-20-20s-20 8.954-20 20v20h-68c-11.046 0-20 8.954-20 20s8.954 20 20 20h179c11.046 0 20-8.954 20-20s-8.954-20-20-20zM335 247h42c11.046 0 20-8.954 20-20s-8.954-20-20-20h-42c-11.046 0-20 8.954-20 20s8.954 20 20 20zm0-80h82c11.046 0 20-8.954 20-20s-8.954-20-20-20h-82c-11.046 0-20 8.954-20 20s8.954 20 20 20z"/></svg>