<svg height="512" fill="#fff" width="512" xmlns="http://www.w3.org/2000/svg"><path d="M383 347.282c0 28.706-11.678 55.789-32.882 76.26-18.493 17.855-42.033 28.592-67.118 30.805V492c0 11.046-8.954 20-20 20s-20-8.954-20-20v-39.465c-28.578-3.701-65.138-12.061-99.399-25.704-10.262-4.086-15.268-15.718-11.182-25.98 4.087-10.263 15.716-15.267 25.98-11.182 46.271 18.425 94.051 25.113 114.878 25.113 37.794 0 69.723-30.911 69.723-67.5 0-36.962-35.849-67.032-79.912-67.032-35.151 0-67.439-10.846-90.917-30.54C148.201 229.603 135 202.105 135 172.282c0-59.276 48.317-107.5 107.708-107.5l.292.001V20c0-11.046 8.954-20 20-20s20 8.954 20 20v47.647c21.134 3.106 47.033 9.412 79.261 21.967 10.292 4.01 15.385 15.604 11.375 25.896s-15.604 15.385-25.896 11.375c-49.993-19.478-81.148-22.104-105.031-22.104-37.334 0-67.708 30.28-67.708 67.5 0 38.748 37.869 67.968 88.088 67.968 31.597 0 61.367 10.763 83.828 30.306C370.185 290.803 383 318.052 383 347.282zM84.062 120.472c7.854-7.766 7.927-20.429.16-28.284-7.765-7.854-20.43-7.928-28.283-.161l-37.796 37.37C6.443 140.964 0 156.361 0 172.75s6.443 31.786 18.143 43.353l37.796 37.37A19.934 19.934 0 0070 259.251a19.94 19.94 0 0014.223-5.938c7.767-7.854 7.694-20.518-.16-28.284l-37.796-37.37C42.225 183.663 40 178.369 40 172.75s2.225-10.913 6.266-14.908zm409.795 183.925l-37.796-37.37c-7.854-7.766-20.519-7.694-28.283.161-7.767 7.854-7.694 20.518.16 28.284l37.796 37.37c4.041 3.995 6.266 9.29 6.266 14.908s-2.225 10.913-6.266 14.908l-37.796 37.37c-7.854 7.766-7.927 20.429-.16 28.284a19.933 19.933 0 0014.223 5.938c5.08 0 10.163-1.924 14.061-5.778l37.796-37.37C505.557 379.536 512 364.139 512 347.75s-6.443-31.786-18.143-43.353z"/></svg>