<svg height="512" fill="#fff" width="512" xmlns="http://www.w3.org/2000/svg"><path d="M464.216 405.708C416.161 472.265 338.323 512 256 512c-68.38 0-132.667-26.629-181.02-74.98C26.629 388.668 0 324.38 0 256S26.629 123.333 74.98 74.98C123.333 26.629 187.62 0 256 0c82.323 0 160.161 39.735 208.216 106.292 6.465 8.956 4.447 21.457-4.509 27.923-8.954 6.466-21.456 4.447-27.923-4.508C391.229 73.536 325.515 40 256 40 136.897 40 40 136.898 40 256s96.897 216 216 216c69.515 0 135.229-33.536 175.784-89.708 6.467-8.955 18.969-10.974 27.923-4.508 8.956 6.467 10.974 18.968 4.509 27.924zM256 161c25.555 0 49.574 10.269 67.634 28.915 7.685 7.934 20.347 8.136 28.281.452 7.934-7.685 8.136-20.347.451-28.281C326.704 135.591 292.48 121 256 121c-74.439 0-135 60.561-135 135s60.561 135 135 135c36.481 0 70.705-14.591 96.366-41.085 7.685-7.934 7.482-20.596-.451-28.281-7.936-7.685-20.596-7.482-28.281.452C305.574 340.731 281.555 351 256 351c-52.383 0-95-42.617-95-95s42.617-95 95-95zm226.485 115.34C477.014 270.9 474 263.677 474 256s3.014-14.9 8.485-20.34l23.615-23.476c7.833-7.788 7.871-20.451.083-28.284-7.788-7.835-20.453-7.871-28.284-.084l-23.615 23.477c-8.193 8.145-14.079 17.976-17.335 28.708H256c-11.046 0-20 8.954-20 20s8.954 20 20 20h180.949c3.256 10.732 9.142 20.563 17.335 28.708l23.615 23.476A19.94 19.94 0 00492 334a19.938 19.938 0 0014.184-5.9c7.788-7.833 7.75-20.497-.083-28.284z"/></svg>