<svg height="512" fill="#fff" width="512" xmlns="http://www.w3.org/2000/svg"><path d="M272.424 130.576V234H311c11.046 0 20 8.954 20 20s-8.954 20-20 20h-38.576v106.424C272.424 402.797 290.626 421 313 421c11.046 0 20 8.954 20 20s-8.954 20-20 20c-44.43 0-80.576-36.146-80.576-80.576V130.576C232.424 86.146 268.57 50 313 50c11.046 0 20 8.954 20 20s-8.954 20-20 20c-22.374 0-40.576 18.203-40.576 40.576zM512 254c0 39.701-32.299 72-72 72s-72-32.299-72-72 32.299-72 72-72 72 32.299 72 72zm-40 0c0-17.645-14.355-32-32-32s-32 14.355-32 32 14.355 32 32 32 32-14.355 32-32zM368 72c0-39.701 32.299-72 72-72s72 32.299 72 72-32.299 72-72 72-72-32.299-72-72zm40 0c0 17.645 14.355 32 32 32s32-14.355 32-32-14.355-32-32-32-32 14.355-32 32zM190 255.644V340c0 4.688-1.476 9.021-4.479 12.615-1.269 1.64-31.545 41.7-31.545 115.974 0 23.937-20.412 43.411-45.502 43.411H81.526c-25.09 0-45.502-19.474-45.502-43.411 0-75.339-31.184-115.534-31.499-115.919A20.002 20.002 0 010 340v-84.356C0 206.766 39.766 167 88.644 167h12.712C150.234 167 190 206.766 190 255.644zm-40 0C150 228.822 128.178 207 101.356 207H88.644C61.822 207 40 228.822 40 255.644v77.953c10.619 15.927 36.023 61.694 36.023 134.992 0 1.316 2.518 3.411 5.502 3.411h26.948c2.984 0 5.502-2.095 5.502-3.411 0-73.297 25.405-119.065 36.024-134.992v-77.953zM26 68C26 30.505 56.505 0 94 0s68 30.505 68 68-30.505 68-68 68-68-30.505-68-68zm40 0c0 15.439 12.561 28 28 28s28-12.561 28-28-12.561-28-28-28-28 12.561-28 28zm446 372c0 39.701-32.299 72-72 72s-72-32.299-72-72 32.299-72 72-72 72 32.299 72 72zm-40 0c0-17.645-14.355-32-32-32s-32 14.355-32 32 14.355 32 32 32 32-14.355 32-32z"/></svg>