<svg width="301" height="395" fill="none" xmlns="http://www.w3.org/2000/svg"><path d="M69.03 306.194c-.606.278-.783.901-.783 2.651v1.646h-2.403c-1.388 0-2.563.087-2.83.191-.286.138-1.977 2.443-4.806 6.583l-4.378 6.393H29.765l-.517.502-.516.503v3.482c0 3.413 0 3.465.427 3.95.41.467.499.485 2.314.537l1.887.069v1.716c0 1.611.035 1.767.445 2.148.427.416.48.433 3.293.433 2.812 0 2.865-.017 3.292-.433.41-.381.445-.537.445-2.165v-1.733H75.9v1.733c0 1.628.036 1.784.445 2.165.427.416.481.433 3.293.433 2.813 0 2.865-.017 3.293-.433.41-.381.444-.537.444-2.148v-1.716l1.887-.069c1.816-.052 1.905-.07 2.314-.537.428-.486.428-.537.428-4.019v-3.517l-.552-.45c-.499-.416-.677-.45-2.314-.45h-1.763v-6.843c.018-4.522-.053-6.948-.178-7.19-.32-.589-.801-.693-3.364-.693h-2.51v-1.04c0-.918-.053-1.109-.462-1.472-.482-.433-.5-.433-3.97-.416-2.01-.002-3.648.085-3.861.189zm5.269 10.1v7.364h-3.026v-14.727H74.3v7.363zm6.051 1.473v5.89h-3.025v-11.781h3.025v5.891zm-13.634-4.124c-.072.122-1.638 2.426-3.489 5.111l-3.347 4.904h-1.174c-.641 0-1.14-.07-1.103-.156.035-.087 1.584-2.373 3.434-5.111l3.382-4.937 1.21-.018c.927 0 1.176.052 1.087.207zm1.477 9.962c-.053.035-1.085.035-2.332.017l-2.242-.051 2.279-3.309 2.26-3.326.053 3.292c.018 1.818.018 3.343-.018 3.377zm16.75 4.592l-.053 1.438H31.846l-.052-1.438-.054-1.421h53.256l-.053 1.421zm-47.133 5.162v.694h-1.425v-1.387h1.425v.693zm42.54 0v.694h-1.424v-1.387h1.424v.693zm-63.544 11.348c-3.293.71-6.568 2.615-8.614 5.041-1.976 2.339-2.92 4.384-3.596 7.797-.035.225-.355.485-.819.693-1.157.484-2.616 1.905-3.186 3.084-.925 1.888-.925 1.836 1.175 11.867 1.05 5.058 2.029 9.355 2.225 9.701.695 1.351 2.528 2.582 4.236 2.876l.748.121v7.797l.516.502.516.503h2.759c2.492 0 2.794-.035 3.204-.346.355-.278.747-1.178 1.851-4.418l1.388-4.072 27.038.034 27.037.053 1.405 4.071c.944 2.79 1.496 4.176 1.763 4.367.32.277.765.312 3.186.312 3.951 0 3.63.415 3.737-4.782l.09-4.124.551-.121c1.638-.312 3.506-1.854 4.059-3.326.231-.606 2.598-15.349 2.9-18.017.214-1.837-1.014-4.332-2.651-5.406-.748-.486-.82-.589-.944-1.438-.782-5.857-5.267-10.863-11.248-12.544-1.389-.399-1.424-.399-14.204-.399H49.113l-1.602.503c-.872.277-1.798.519-2.047.519-.249 0-1.157-.242-2.046-.519l-1.602-.503-11.926-.034c-9.737-.017-12.14.017-13.084.208zm25.863 3.17l1.193.399v22.678H15.418l-.09-.399c-.053-.208-.266-1.715-.48-3.326-.231-1.629-.552-3.361-.748-3.846-.498-1.334-1.655-2.928-2.705-3.724-.962-.763-2.83-1.699-3.347-1.699-.41 0-.41-.606-.053-1.992.89-3.343 3.791-6.532 6.995-7.709 2.26-.832 2.42-.849 14.809-.815 11.624.035 11.66.035 12.87.433zm33.499.07c3.737 1.23 6.515 3.95 7.653 7.467.25.745.445 1.576.445 1.837 0 .451-.072.502-.82.606-2.296.295-5.054 2.391-6.229 4.696-.677 1.368-.872 2.425-1.05 6.011l-.125 2.39H47.065v-22.661l.854-.277a16.4 16.4 0 011.656-.433c.427-.087 6.265-.139 12.976-.139l12.192.035 1.425.468zM8.458 361.2c.997.433 1.976 1.386 2.474 2.426.445.919.57 1.837 1.691 11.816.499 4.383.748 7.241.64 7.345-.088.087-1.298.121-2.723.087-2.865-.052-3.346-.225-3.791-1.247-.32-.745-3.827-17.533-3.827-18.313 0-.901.552-1.732 1.442-2.199.659-.347.961-.399 2.03-.329.711.033 1.602.207 2.064.414zm78.211-.035c.765.433 1.335 1.369 1.335 2.218 0 .988-2.723 17.897-2.954 18.33-.517.97-.961 1.109-3.88 1.16l-2.653.052.124-2.651c.196-4.245.641-11.85.82-13.947.195-2.322.569-3.205 1.815-4.297 1.513-1.332 3.916-1.713 5.393-.865zm-11.017 16.06c-.072 1.75-.16 3.742-.232 4.435l-.107 1.247H16.628l-.09-.398c-.034-.208-.195-1.82-.355-3.586a159.8 159.8 0 00-.374-4.037l-.107-.814h60.073l-.124 3.153zm-59.735 8.767c0 .07-.427 1.369-.944 2.893l-.96 2.772-.997.053-1.015.051v-5.908h1.958c1.085 0 1.958.052 1.958.139zm64.433 2.807v2.945h-1.869l-1.015-2.945-.996-2.946h3.88v2.946z" fill="#FFFEFE"/><path d="M21.594 353.785c-.783.762-.695 1.247.462 2.425.909.936.98 1.057.802 1.473-.231.589-.231 2.53-.018 3.101.142.363.054.519-.694 1.247-.481.468-.926 1.057-.98 1.317-.248 1.092.944 2.097 2.012 1.698.268-.104.854-.52 1.3-.952.747-.711.854-.762 1.298-.59.623.225 2.154.225 2.955 0 .588-.156.659-.138 1.513.675 1.085 1.023 1.37 1.127 2.136.815 1.281-.537 1.316-1.508.071-2.789l-.908-.936.178-1.056a5.2 5.2 0 00.018-2.028l-.196-.97.712-.71c1.246-1.247 1.37-1.836.64-2.685-.729-.849-1.459-.762-2.651.346l-.944.866-1.067-.208c-.855-.174-1.264-.174-2.083 0l-.997.225-.96-.884c-1.157-1.073-1.78-1.16-2.599-.38zm6.693 4.192c1.015.866.997 1.577-.053 2.53-.676.607-1.442.537-2.172-.208-.819-.831-.819-1.507.053-2.286.82-.711 1.353-.729 2.172-.036zm29.743-4.157c-.73.849-.606 1.438.64 2.685l.713.711-.196 1.022c-.142.745-.142 1.282 0 2.01l.213 1.005-.925.953c-1.247 1.281-1.21 2.252.071 2.789.765.312 1.05.208 2.136-.815.854-.814.926-.831 1.512-.675.802.225 2.332.225 2.955 0 .445-.173.552-.121 1.3.59.444.432 1.032.848 1.298.952 1.068.399 2.26-.606 2.012-1.698-.054-.26-.499-.849-.979-1.317-.748-.728-.837-.884-.695-1.247.214-.572.214-2.512-.017-3.101-.179-.416-.107-.537.801-1.473 1.157-1.177 1.246-1.663.463-2.425-.802-.78-1.443-.694-2.6.381l-.943.866-1.068-.208c-.854-.174-1.264-.174-2.083 0l-.996.225-.961-.884c-1.191-1.109-1.921-1.195-2.651-.346zm6.781 4.193c.872.78.872 1.455.054 2.286-.73.745-1.495.815-2.172.208-1.05-.952-1.068-1.663-.053-2.53.818-.693 1.352-.675 2.171.036z" fill="#FFFEFE"/><path d="M261.47 107c-8.568 23.381 11.499 31.586 27.561 46.868 4.759 4.528 5.213 12.01.204 16.535-10.773 9.731-51.616-4.426-49.025 8.403 2.676 13.249 37.207 31.786 38.763 33.054 13.667 11.132 18.118 39.375 10.591 54.859-5.356 11.018-40.866 7.304-52.036 3.635-73.148-24.028-40.187-21.162-122.356-28.624-6.29-.571-12.881-.863-18.922.981-6.223 1.899-6.025 9.688-3.937 13.9 6.918 13.956 37.892 37.627 29.556 55.972-2.557 5.629-8.55 9.185-11.249 14.747-2.114 4.358-1.879 9.502-2.819 14.253" stroke="#fff" stroke-width="2"/><path d="M291.593 11.813l-6.114 5.357-6.149 16.782h-4.945l-1.942-4.925h1.269c2.32 0 4.207-2.185 4.207-4.901v-4.949h2.104V11.79h-6.311v7.387h2.103v4.949c0 1.357-.943 2.439-2.103 2.439h-2.24l-2.688-6.809 3.22-1.879-10.545-5.287-2.48 10.157c-.067-6.043-4.282-10.935-9.46-10.935-5.22 0-9.467 4.97-9.467 11.081 0 3.693 1.598 7.156 4.208 9.204v1.855h-2.548l-.164 1.01a32.397 32.397 0 00-.141 9.476l-7.175 14.972 7.924 2.119v15.517h10.519v11.081h25.244V70.97c7.363-6.097 11.568-15.9 11.562-26.359l.002-4.491c0-1.693-.134-3.433-.403-5.147l-.156-1.02h-2.064l4.733-13.275v-8.865zm-15.778 4.925v-2.462h2.104v2.462h-2.104zm-3.747 17.214h-3.99l-1.912-4.925h3.96l1.942 4.925zm-9.244-17.994l4.181 2.097-.987.566 3.137 7.944h-3.945l-2.564-6.586-.941.556 1.119-4.577zm2.943 17.995h-4.677v-2.44c0-1.358.943-2.485 2.103-2.485h.662l1.912 4.925zm-4.131-10.618l1.276 3.287c-2.188.172-3.926 2.287-3.926 4.891v2.44h-4.208v-1.856c2.105-1.651 3.533-4.228 4.015-7.098l2.843-1.664zm-19.48-.44c0-4.752 3.304-8.62 7.363-8.62 4.059 0 7.363 3.868 7.363 8.62 0 3.058-1.411 5.916-3.682 7.456l-.525.355v3.246h-2.104V26.36c1.221-.51 2.104-1.864 2.104-3.467 0-2.036-1.416-3.694-3.156-3.694-1.74 0-3.155 1.658-3.155 3.694 0 1.603.882 2.958 2.103 3.468v7.591h-2.103v-3.246l-.525-.356c-2.271-1.54-3.683-4.397-3.683-7.455zm7.363 1.23c-.581 0-1.052-.552-1.052-1.23 0-.68.471-1.232 1.052-1.232.581 0 1.052.552 1.052 1.232 0 .68-.471 1.23-1.052 1.23zm37.635 12.29c.153 1.231.23 2.48.23 3.694l.002 4.5c.006 9.864-4.152 19.1-11.108 24.706l-.463.37v15.98h-21.036V74.584H244.26V59.565l-6.817-1.821 6.157-12.85-.06-.44c-.391-2.694-.413-5.577-.073-8.039h43.687zm-2.574-2.463h-2.963l5.244-14.31 2.332 1.36-4.613 12.95zm4.909-15.513l-1.163-.681 1.163-1.02v1.7z" fill="#FDF0F0"/><path d="M291.593 11.813l-6.114 5.357-6.149 16.782h-4.945l-1.942-4.925h1.269c2.32 0 4.207-2.185 4.207-4.901v-4.949h2.104V11.79h-6.311v7.387h2.103v4.949c0 1.357-.943 2.439-2.103 2.439h-2.24l-2.688-6.809 3.22-1.879-10.545-5.287-2.48 10.157c-.067-6.043-4.282-10.935-9.46-10.935-5.22 0-9.467 4.97-9.467 11.081 0 3.693 1.598 7.156 4.208 9.204v1.855h-2.548l-.164 1.01a32.397 32.397 0 00-.141 9.476l-7.175 14.972 7.924 2.119v15.517h10.519v11.081h25.244V70.97c7.363-6.097 11.568-15.9 11.562-26.359l.002-4.491c0-1.693-.134-3.433-.403-5.147l-.156-1.02h-2.064l4.733-13.275v-8.865zm-15.778 4.925v-2.462h2.104v2.462h-2.104zm-3.747 17.214h-3.99l-1.912-4.925h3.96l1.942 4.925zm-9.244-17.994l4.181 2.097-.987.566 3.137 7.944h-3.945l-2.564-6.586-.941.556 1.119-4.577zm2.943 17.995h-4.677v-2.44c0-1.358.943-2.485 2.103-2.485h.662l1.912 4.925zm-4.131-10.618l1.276 3.287c-2.188.172-3.926 2.287-3.926 4.891v2.44h-4.208v-1.856c2.105-1.651 3.533-4.228 4.015-7.098l2.843-1.664zm-19.48-.44c0-4.752 3.304-8.62 7.363-8.62 4.059 0 7.363 3.868 7.363 8.62 0 3.058-1.411 5.916-3.682 7.456l-.525.355v3.246h-2.104V26.36c1.221-.51 2.104-1.864 2.104-3.467 0-2.036-1.416-3.694-3.156-3.694-1.74 0-3.155 1.658-3.155 3.694 0 1.603.882 2.958 2.103 3.468v7.591h-2.103v-3.246l-.525-.356c-2.271-1.54-3.683-4.397-3.683-7.455zm7.363 1.23c-.581 0-1.052-.552-1.052-1.23 0-.68.471-1.232 1.052-1.232.581 0 1.052.552 1.052 1.232 0 .68-.471 1.23-1.052 1.23zm37.635 12.29c.153 1.231.23 2.48.23 3.694l.002 4.5c.006 9.864-4.152 19.1-11.108 24.706l-.463.37v15.98h-21.036V74.584H244.26V59.565l-6.817-1.821 6.157-12.85-.06-.44c-.391-2.694-.413-5.577-.073-8.039h43.687zm-2.574-2.463h-2.963l5.244-14.31 2.332 1.36-4.613 12.95zm4.909-15.513l-1.163-.681 1.163-1.02v1.7z" fill="#FDF0F0"/><path d="M251.623 43.803c-1.74 0-3.156-1.232-3.156-3.694h-2.103c0 3.694 2.359 6.156 5.259 6.156 2.9 0 5.259-2.462 5.259-6.156h-2.103c-.001 2.462-1.416 3.694-3.156 3.694z" fill="#FDF0F0"/><path fill-rule="evenodd" clip-rule="evenodd" d="M107.5 350a6.5 6.5 0 100-13 6.5 6.5 0 000 13z" fill="#E98989"/><path fill-rule="evenodd" clip-rule="evenodd" d="M263.5 113a6.5 6.5 0 100-13 6.5 6.5 0 000 13z" fill="#FF535D"/></svg>