<svg id="Layer_1" enable-background="new 0 0 512 512" height="512" fill="#ffffff" viewBox="0 0 512 512" width="512" xmlns="http://www.w3.org/2000/svg"><path d="m383 347.282c0 28.706-11.678 55.789-32.882 76.26-18.493 17.855-42.033 28.592-67.118 30.805v37.653c0 11.046-8.954 20-20 20s-20-8.954-20-20v-39.465c-28.578-3.701-65.138-12.061-99.399-25.704-10.262-4.086-15.268-15.718-11.182-25.98 4.087-10.263 15.716-15.267 25.98-11.182 46.271 18.425 94.051 25.113 114.878 25.113 37.794 0 69.723-30.911 69.723-67.5 0-36.962-35.849-67.032-79.912-67.032-35.151 0-67.439-10.846-90.917-30.54-23.97-20.107-37.171-47.605-37.171-77.428 0-59.276 48.317-107.5 107.708-107.5.096 0 .196.001.292.001v-44.783c0-11.046 8.954-20 20-20s20 8.954 20 20v47.647c21.134 3.106 47.033 9.412 79.261 21.967 10.292 4.01 15.385 15.604 11.375 25.896s-15.604 15.385-25.896 11.375c-49.993-19.478-81.148-22.104-105.031-22.104-37.334 0-67.708 30.28-67.708 67.5 0 38.748 37.869 67.968 88.088 67.968 31.597 0 61.367 10.763 83.828 30.306 23.268 20.248 36.083 47.497 36.083 76.727zm-298.938-226.81c7.854-7.766 7.927-20.429.16-28.284-7.765-7.854-20.43-7.928-28.283-.161l-37.796 37.37c-11.7 11.567-18.143 26.964-18.143 43.353s6.443 31.786 18.143 43.353l37.796 37.37c3.898 3.854 8.979 5.778 14.061 5.778 5.156 0 10.312-1.982 14.223-5.938 7.767-7.854 7.694-20.518-.16-28.284l-37.796-37.37c-4.042-3.996-6.267-9.29-6.267-14.909s2.225-10.913 6.266-14.908zm409.795 183.925-37.796-37.37c-7.854-7.766-20.519-7.694-28.283.161-7.767 7.854-7.694 20.518.16 28.284l37.796 37.37c4.041 3.995 6.266 9.29 6.266 14.908s-2.225 10.913-6.266 14.908l-37.796 37.37c-7.854 7.766-7.927 20.429-.16 28.284 3.911 3.957 9.065 5.938 14.223 5.938 5.08 0 10.163-1.924 14.061-5.778l37.796-37.37c11.699-11.566 18.142-26.963 18.142-43.352s-6.443-31.786-18.143-43.353z"/></svg>