<svg id="Layer_1" enable-background="new 0 0 511.998 511.998" height="512" fill="#ffffff" viewBox="0 0 511.998 511.998" width="512" xmlns="http://www.w3.org/2000/svg"><g><path d="m312.139 441.964c-10.511-3.39-21.783 2.381-25.174 12.894l-5.529 17.14h-51.873l-5.529-17.14c-3.391-10.512-14.66-16.284-25.174-12.894-10.512 3.391-16.285 14.662-12.894 25.174l10 31c2.665 8.261 10.354 13.86 19.034 13.86h81c8.68 0 16.369-5.599 19.034-13.86l10-31c3.39-10.512-2.383-21.783-12.895-25.174z"/><path d="m255.999.002c.142-.003-.143-.003 0 0z"/><path d="m392.405 51.116c-35.625-32.664-84.617-50.787-136.406-51.114-51.789.327-100.781 18.45-136.406 51.114-37.14 34.053-57.594 81.244-57.594 132.882 0 53.582 22.86 109.457 66.108 161.583 32.016 38.588 63.871 61.687 65.211 62.651 3.402 2.448 7.489 3.766 11.681 3.766h101c4.166 0 8.228-1.301 11.619-3.721 1.351-.964 33.453-24.055 65.723-62.635 43.608-52.137 66.659-108.032 66.659-161.644-.001-51.638-20.455-98.829-57.595-132.882zm-93.16 320.882h-87.446c-21.923-17.453-109.8-93.34-109.8-188 0-81.938 66.169-143.766 154-144 87.831.234 154 62.062 154 144 0 94.719-88.779 170.66-110.754 188z"/><g><path d="m253.999 142.998c.087-.001-.088-.001 0 0z"/><path d="m315.199 162.817c-6.656-4.6-31.031-19.635-61.2-19.819-33.581.205-60.064 18.817-62.933 20.95-8.864 6.59-10.708 19.119-4.118 27.983 3.925 5.28 9.956 8.069 16.066 8.069 4.148 0 8.333-1.286 11.917-3.951.115-.085 7.849-5.649 19.067-9.483v106.433c0 11.046 8.954 20 20 20s20-8.954 20-20v-106.36c11.159 3.851 18.89 9.389 19.008 9.475l-.087-.064.065-.088c3.347 2.523 7.499 4.038 12.014 4.038 11.046 0 20-8.954 20-20 .001-7.317-3.938-13.696-9.799-17.183z"/></g></g></svg>